<svg width="27" height="22" viewBox="0 0 27 22" fill="none" xmlns="http://www.w3.org/2000/svg">
<path d="M11.1 16H12.9M16.5 16H20.7M1.5 7.25H25.5M1.5 11C1.5 6.57875 1.5 4.3675 2.7636 2.89125C2.966 2.65458 3.1876 2.43708 3.4284 2.23875C4.9344 1 7.1892 1 11.7 1H15.3C19.8108 1 22.0656 1 23.5704 2.2375C23.812 2.4375 24.034 2.65542 24.2364 2.89125C25.5 4.36625 25.5 6.57875 25.5 11C25.5 15.4212 25.5 17.6325 24.2364 19.1087C24.0329 19.3459 23.8101 19.5642 23.5704 19.7613C22.0656 21 19.812 21 15.3 21H11.7C7.1892 21 4.9344 21 3.4284 19.7625C3.18907 19.565 2.96664 19.3463 2.7636 19.1087C1.5 17.6337 1.5 15.4212 1.5 11Z" stroke="black" stroke-width="1.5" stroke-linecap="round" stroke-linejoin="round"/>
</svg>
