<svg width="24" height="24" viewBox="0 0 24 24" fill="none" xmlns="http://www.w3.org/2000/svg">
<path d="M21 12C21.552 12 22.005 11.551 21.95 11.002C21.7195 8.70618 20.7021 6.56071 19.0703 4.92933C17.4386 3.29795 15.2929 2.28105 12.997 2.05101C12.447 1.99601 11.999 2.44901 11.999 3.00101V11.001C11.999 11.2662 12.1044 11.5206 12.2919 11.7081C12.4795 11.8957 12.7338 12.001 12.999 12.001L21 12Z" stroke="#06D6A0" stroke-width="2" stroke-linecap="round" stroke-linejoin="round"/>
<path d="M21.2099 15.89C20.5737 17.3945 19.5787 18.7202 18.3118 19.7513C17.0449 20.7824 15.5447 21.4874 13.9424 21.8048C12.34 22.1222 10.6843 22.0422 9.12006 21.5718C7.55578 21.1015 6.13054 20.2551 4.96893 19.1067C3.80733 17.9583 2.94473 16.5428 2.45655 14.984C1.96837 13.4252 1.86948 11.7705 2.16851 10.1647C2.46755 8.5588 3.15541 7.05064 4.17196 5.77205C5.18851 4.49345 6.5028 3.48333 7.99992 2.83002" stroke="#06D6A0" stroke-width="2" stroke-linecap="round" stroke-linejoin="round"/>
</svg>
