<svg width="112" height="116" viewBox="0 0 112 116" fill="none" xmlns="http://www.w3.org/2000/svg">
<g opacity="0.5">
<path opacity="0.2" d="M35 30H111.8C116.043 30 120.113 31.6857 123.114 34.6863C126.114 37.6869 127.8 41.7565 127.8 46V90.8C127.8 95.0435 126.114 99.1131 123.114 102.114C120.113 105.114 116.043 106.8 111.8 106.8H35C30.7565 106.8 26.6869 105.114 23.6863 102.114C20.6857 99.1131 19 95.0435 19 90.8V46C19 41.7565 20.6857 37.6869 23.6863 34.6863C26.6869 31.6857 30.7565 30 35 30Z" fill="#1A1819"/>
<path fill-rule="evenodd" clip-rule="evenodd" d="M102.4 25.6H25.6001C21.3566 25.6 17.287 27.2857 14.2864 30.2863C11.2858 33.2868 9.6001 37.3565 9.6001 41.6V86.4C9.6001 90.6434 11.2858 94.7131 14.2864 97.7137C17.287 100.714 21.3566 102.4 25.6001 102.4H102.4C106.644 102.4 110.713 100.714 113.714 97.7137C116.714 94.7131 118.4 90.6434 118.4 86.4V41.6C118.4 37.3565 116.714 33.2868 113.714 30.2863C110.713 27.2857 106.644 25.6 102.4 25.6ZM16.0001 41.6C16.0001 39.0539 17.0115 36.6121 18.8119 34.8117C20.6122 33.0114 23.054 32 25.6001 32H102.4C104.946 32 107.388 33.0114 109.188 34.8117C110.989 36.6121 112 39.0539 112 41.6V86.4C112 88.9461 110.989 91.3879 109.188 93.1882C107.388 94.9886 104.946 96 102.4 96H25.6001C23.054 96 20.6122 94.9886 18.8119 93.1882C17.0115 91.3879 16.0001 88.9461 16.0001 86.4V41.6Z" fill="#1A1819"/>
<path fill-rule="evenodd" clip-rule="evenodd" d="M16 41.6H112C112.849 41.6 113.663 41.9371 114.263 42.5372C114.863 43.1374 115.2 43.9513 115.2 44.8V51.2C115.2 52.0487 114.863 52.8626 114.263 53.4627C113.663 54.0628 112.849 54.4 112 54.4H16C15.1514 54.4 14.3374 54.0628 13.7373 53.4627C13.1372 52.8626 12.8 52.0487 12.8 51.2V44.8C12.8 43.9513 13.1372 43.1374 13.7373 42.5372C14.3374 41.9371 15.1514 41.6 16 41.6ZM38.4 60.8H32C30.3027 60.8 28.6748 61.4743 27.4746 62.6745C26.2743 63.8747 25.6 65.5026 25.6 67.2V73.6C25.6 75.2974 26.2743 76.9252 27.4746 78.1255C28.6748 79.3257 30.3027 80 32 80H38.4C40.0974 80 41.7253 79.3257 42.9255 78.1255C44.1258 76.9252 44.8 75.2974 44.8 73.6V67.2C44.8 65.5026 44.1258 63.8747 42.9255 62.6745C41.7253 61.4743 40.0974 60.8 38.4 60.8ZM32 73.6V67.2H38.4V73.6H32Z" fill="#1A1819"/>
</g>
</svg>
