<svg width="16" height="12" viewBox="0 0 16 12" fill="none" xmlns="http://www.w3.org/2000/svg">
<path fill-rule="evenodd" clip-rule="evenodd" d="M1.87007 6.51501L1.64107 6.00001L1.87007 5.48501C2.39702 4.2992 3.2566 3.29167 4.34463 2.58454C5.43266 1.87742 6.70244 1.50105 8.00007 1.50105C9.2977 1.50105 10.5675 1.87742 11.6555 2.58454C12.7435 3.29167 13.6031 4.2992 14.1301 5.48501L14.3581 6.00001L14.1291 6.51501C13.602 7.70054 12.7424 8.70778 11.6545 9.41469C10.5666 10.1216 9.29699 10.4979 7.99957 10.4979C6.70215 10.4979 5.43257 10.1216 4.34465 9.41469C3.25673 8.70778 2.39715 7.70054 1.87007 6.51501ZM0.500068 4.87601L0.240068 5.46101C0.164681 5.63088 0.125732 5.81467 0.125732 6.00051C0.125732 6.18636 0.164681 6.37014 0.240068 6.54001L0.500068 7.12401C1.14505 8.57456 2.19684 9.80695 3.528 10.6719C4.85917 11.5368 6.41259 11.9972 8.00007 11.9972C9.58755 11.9972 11.141 11.5368 12.4721 10.6719C13.8033 9.80695 14.8551 8.57456 15.5001 7.12401L15.7601 6.54001C15.8356 6.37001 15.8746 6.18604 15.8746 6.00001C15.8746 5.81398 15.8356 5.63002 15.7601 5.46001L15.5001 4.87601C14.8551 3.42546 13.8033 2.19307 12.4721 1.32815C11.141 0.463218 9.58755 0.00286865 8.00007 0.00286865C6.41259 0.00286865 4.85917 0.463218 3.528 1.32815C2.19684 2.19307 1.14505 3.42546 0.500068 4.87601ZM9.50007 6.00001C9.50007 6.39784 9.34203 6.77937 9.06073 7.06067C8.77942 7.34198 8.39789 7.50001 8.00007 7.50001C7.60224 7.50001 7.22071 7.34198 6.93941 7.06067C6.6581 6.77937 6.50007 6.39784 6.50007 6.00001C6.50007 5.60219 6.6581 5.22066 6.93941 4.93935C7.22071 4.65805 7.60224 4.50001 8.00007 4.50001C8.39789 4.50001 8.77942 4.65805 9.06073 4.93935C9.34203 5.22066 9.50007 5.60219 9.50007 6.00001ZM11.0001 6.00001C11.0001 6.79566 10.684 7.55872 10.1214 8.12133C9.55878 8.68394 8.79572 9.00001 8.00007 9.00001C7.20442 9.00001 6.44136 8.68394 5.87875 8.12133C5.31614 7.55872 5.00007 6.79566 5.00007 6.00001C5.00007 5.20436 5.31614 4.4413 5.87875 3.87869C6.44136 3.31608 7.20442 3.00001 8.00007 3.00001C8.79572 3.00001 9.55878 3.31608 10.1214 3.87869C10.684 4.4413 11.0001 5.20436 11.0001 6.00001Z" fill="#F8F9FA"/>
</svg>
