<svg width="24" height="24" viewBox="0 0 24 24" fill="none" xmlns="http://www.w3.org/2000/svg">
<path d="M12 22C13.3135 22.0016 14.6143 21.7437 15.8278 21.2411C17.0412 20.7384 18.1434 20.0009 19.071 19.071C20.0009 18.1434 20.7384 17.0412 21.2411 15.8278C21.7437 14.6143 22.0016 13.3135 22 12C22.0016 10.6866 21.7437 9.38572 21.2411 8.17225C20.7384 6.95878 20.0009 5.85659 19.071 4.92901C18.1434 3.99909 17.0412 3.26162 15.8278 2.75897C14.6143 2.25631 13.3135 1.99839 12 2.00001C10.6866 1.99839 9.38572 2.25631 8.17225 2.75897C6.95878 3.26162 5.85659 3.99909 4.92901 4.92901C3.99909 5.85659 3.26162 6.95878 2.75897 8.17225C2.25631 9.38572 1.99839 10.6866 2.00001 12C1.99839 13.3135 2.25631 14.6143 2.75897 15.8278C3.26162 17.0412 3.99909 18.1434 4.92901 19.071C5.85659 20.0009 6.95878 20.7384 8.17225 21.2411C9.38572 21.7437 10.6866 22.0016 12 22Z" stroke="#06D6A0" stroke-width="2" stroke-linejoin="round"/>
<path d="M12 14.3125V12.3125C12.5933 12.3125 13.1734 12.1366 13.6667 11.8069C14.1601 11.4773 14.5446 11.0087 14.7716 10.4606C14.9987 9.91237 15.0581 9.30917 14.9424 8.72723C14.8266 8.14529 14.5409 7.61074 14.1213 7.19118C13.7018 6.77162 13.1672 6.4859 12.5853 6.37015C12.0033 6.25439 11.4001 6.3138 10.8519 6.54086C10.3038 6.76793 9.83524 7.15244 9.50559 7.64579C9.17595 8.13914 9 8.71916 9 9.3125" stroke="#06D6A0" stroke-width="2" stroke-linecap="round" stroke-linejoin="round"/>
<path fill-rule="evenodd" clip-rule="evenodd" d="M12 18.8125C12.3315 18.8125 12.6495 18.6808 12.8839 18.4464C13.1183 18.212 13.25 17.894 13.25 17.5625C13.25 17.231 13.1183 16.913 12.8839 16.6786C12.6495 16.4442 12.3315 16.3125 12 16.3125C11.6685 16.3125 11.3505 16.4442 11.1161 16.6786C10.8817 16.913 10.75 17.231 10.75 17.5625C10.75 17.894 10.8817 18.212 11.1161 18.4464C11.3505 18.6808 11.6685 18.8125 12 18.8125Z" fill="#06D6A0"/>
</svg>
