<svg width="25" height="24" viewBox="0 0 25 24" fill="none" xmlns="http://www.w3.org/2000/svg">
<path d="M12.38 14.5088H12.4325C13.5575 14.5388 14.4575 15.4538 14.4575 16.5788C14.4575 17.5388 13.805 18.3413 12.92 18.5813V19.4213C12.92 19.7213 12.68 19.9613 12.38 19.9613C12.08 19.9613 11.84 19.7213 11.84 19.4213V18.5813C11.3994 18.4627 11.0101 18.2023 10.7322 17.8404C10.4543 17.4784 10.3033 17.0351 10.3025 16.5788C10.3025 16.2788 10.5425 16.0388 10.8425 16.0388C11.1425 16.0388 11.3825 16.2788 11.3825 16.5788C11.3825 17.1338 11.825 17.5763 12.3725 17.5763C12.92 17.5763 13.37 17.1263 13.37 16.5788C13.37 16.0313 12.92 15.5813 12.3725 15.5813H12.32C11.7805 15.5666 11.2679 15.3422 10.8912 14.9557C10.5144 14.5692 10.3033 14.051 10.3025 13.5113C10.3025 12.5513 10.955 11.7488 11.84 11.5088V10.6688C11.84 10.3688 12.08 10.1288 12.38 10.1288C12.68 10.1288 12.92 10.3688 12.92 10.6688V11.5088C13.805 11.7488 14.4575 12.5513 14.4575 13.5113C14.4575 13.8113 14.2175 14.0513 13.9175 14.0513C13.6175 14.0513 13.3775 13.8113 13.3775 13.5113C13.3775 12.9638 12.9275 12.5138 12.38 12.5138C11.8325 12.5138 11.3825 12.9638 11.3825 13.5113C11.3825 14.0588 11.8325 14.5088 12.38 14.5088Z" fill="black"/>
<path d="M8.399 3.82502L10.4885 6.27002L10.2628 6.52202C5.96225 7.48652 2.75 11.3273 2.75 15.9188C2.75 19.9553 6.026 23.2313 10.0625 23.2313H14.69C18.7265 23.2313 22.0025 19.956 22.0025 15.9195C22.01 11.3273 18.7978 7.48652 14.4973 6.52202C14.5149 6.36352 14.4863 6.20331 14.4148 6.06077L16.1923 4.02602L16.307 3.84902C16.441 3.55676 16.4753 3.22858 16.4046 2.91495C16.3338 2.60132 16.1621 2.3196 15.9156 2.11312C15.6692 1.90664 15.3617 1.78684 15.0406 1.77214C14.7194 1.75745 14.4023 1.84866 14.138 2.03177L13.5058 1.28177C13.3639 1.12305 13.1902 0.996005 12.996 0.908903C12.8018 0.821802 12.5914 0.776601 12.3786 0.776247C12.1657 0.775893 11.9552 0.820394 11.7607 0.90685C11.5662 0.993306 11.3921 1.11978 11.2498 1.27802L10.5875 2.01752C10.3239 1.83061 10.0061 1.73575 9.68317 1.74763C9.36025 1.75951 9.05025 1.87745 8.8011 2.08322C8.55196 2.28899 8.37755 2.57112 8.30487 2.88598C8.23218 3.20083 8.26527 3.53086 8.399 3.82502ZM11.2483 4.86377L9.97625 3.39377C10.2718 3.5359 10.6061 3.5762 10.927 3.50836C11.2479 3.44052 11.5373 3.26837 11.75 3.01877L12.35 2.24027L13.016 3.02927C13.2237 3.27075 13.5038 3.43867 13.8146 3.50801C14.1255 3.57734 14.4504 3.54437 14.741 3.41402L13.475 4.86377H11.2483ZM4.25 15.9188C4.25 11.4278 7.889 7.78877 12.38 7.78877C16.871 7.78877 20.51 11.4278 20.5025 15.9173V15.9188C20.5019 17.4602 19.8893 18.9382 18.7994 20.0282C17.7095 21.1181 16.2314 21.7307 14.69 21.7313H10.0625C8.52111 21.7307 7.04303 21.1181 5.9531 20.0282C4.86317 18.9382 4.2506 17.4602 4.25 15.9188Z" fill="black"/>
</svg>
