<svg width="124" height="115" viewBox="0 0 124 115" fill="none" xmlns="http://www.w3.org/2000/svg">
<g opacity="0.5">
<path d="M29.3 12.8C26.7539 12.8 24.3121 13.8114 22.5117 15.6118C20.7114 17.4121 19.7 19.8539 19.7 22.4V105.6C19.7 108.146 20.7114 110.588 22.5117 112.388C24.3121 114.189 26.7539 115.2 29.3 115.2H74.1C76.646 115.2 79.0878 114.189 80.8882 112.388C82.6885 110.588 83.7 108.146 83.7 105.6V96C83.7 95.1513 83.3628 94.3374 82.7627 93.7372C82.1626 93.1371 81.3486 92.8 80.5 92.8C77.8568 92.8 76.1672 92.1472 75.0216 91.2896C73.8568 90.4192 72.9522 89.0901 72.308 87.3024C70.9384 83.5392 70.9 78.5536 70.9 73.6C70.8999 73.179 70.8167 72.7622 70.6553 72.3735C70.4938 71.9847 70.2573 71.6316 69.9591 71.3344L68.1288 69.4976L60.3656 61.7344C57.3768 58.7456 56.5 56.7424 56.3336 55.6224C56.2056 54.7264 56.4743 54.1248 57.1143 53.5104C58.484 52.1984 59.4632 51.3088 60.5704 51.04C61.2295 50.8736 62.7336 50.7584 65.4344 53.4592L84.6344 72.6592C85.2344 73.2601 86.0485 73.598 86.8977 73.5986C87.3182 73.5989 87.7346 73.5163 88.1231 73.3557C88.5117 73.1951 88.8648 72.9595 89.1624 72.6624C89.4599 72.3653 89.696 72.0125 89.8571 71.6241C90.0183 71.2358 90.1014 70.8195 90.1017 70.399C90.102 69.9786 90.0195 69.5622 89.8589 69.1736C89.6982 68.785 89.4627 68.4319 89.1656 68.1344L83.7 62.6752V42.9248L100.084 59.3088C100.976 60.2001 101.684 61.2586 102.168 62.4238C102.651 63.5889 102.9 64.8378 102.9 66.0992V112C102.9 112.849 103.237 113.663 103.837 114.263C104.437 114.863 105.251 115.2 106.1 115.2C106.949 115.2 107.763 114.863 108.363 114.263C108.963 113.663 109.3 112.849 109.3 112V66.0992C109.299 61.8576 107.614 57.79 104.615 54.7904L83.7 33.8752V22.4C83.7 19.8539 82.6885 17.4121 80.8882 15.6118C79.0878 13.8114 76.646 12.8 74.1 12.8H29.3ZM77.3 35.2V56.2752L69.9656 48.9344C66.2664 45.2352 62.58 43.9616 59.0536 44.8192C58.3605 44.9893 57.6887 45.2362 57.0504 45.5552C54.1894 44.7251 51.1746 44.572 48.2444 45.1082C45.3141 45.6443 42.5488 46.8549 40.1671 48.6442C37.7855 50.4336 35.8529 52.7525 34.5222 55.4177C33.1914 58.0828 32.4991 61.0211 32.5 64C32.4997 67.7116 33.5753 71.3438 35.5965 74.4569C37.6177 77.5699 40.4979 80.0304 43.8884 81.5405C47.279 83.0505 51.0346 83.5455 54.7007 82.9654C58.3667 82.3853 61.786 80.7551 64.5448 78.272C64.6536 81.9712 65.0247 86.016 66.292 89.4912C67.2392 92.096 68.7495 94.5856 71.1815 96.4032L71.22 96.4416C69.2711 97.0545 67.5686 98.2731 66.36 99.9202C65.1514 101.567 64.4998 103.557 64.5 105.6V108.8H38.9V105.6C38.9 103.054 37.8885 100.612 36.0882 98.8118C34.2878 97.0114 31.846 96 29.3 96H26.1V32H29.3C31.846 32 34.2878 30.9886 36.0882 29.1882C37.8885 27.3879 38.9 24.9461 38.9 22.4V19.2H64.5V22.4C64.5 24.9461 65.5114 27.3879 67.3117 29.1882C69.1121 30.9886 71.5539 32 74.1 32H77.3V35.2ZM77.3 105.6V105.658C77.2849 106.496 76.9411 107.295 76.3426 107.883C75.7441 108.471 74.9388 108.8 74.1 108.8H70.9V105.6C70.9 104.751 71.2371 103.937 71.8372 103.337C72.4373 102.737 73.2513 102.4 74.1 102.4H77.3V105.6ZM38.9 64C38.9 60.7448 40.1402 57.612 42.3683 55.2389C44.5964 52.8658 47.6449 51.4307 50.8936 51.2256C50.1 52.6976 49.6968 54.4896 50.004 56.5568C50.4584 59.6416 52.4232 62.848 55.8344 66.2592L61.6392 72.064C59.9727 74.1175 57.7111 75.6045 55.1653 76.3205C52.6194 77.0365 49.9143 76.9463 47.4217 76.0624C44.9292 75.1784 42.7717 73.5442 41.2457 71.3842C39.7197 69.2242 38.9003 66.6446 38.9 64ZM32.5 19.2V22.4C32.5 23.2487 32.1628 24.0626 31.5627 24.6627C30.9626 25.2628 30.1486 25.6 29.3 25.6H26.1V22.4C26.1 21.5513 26.4371 20.7374 27.0372 20.1372C27.6373 19.5371 28.4513 19.2 29.3 19.2H32.5ZM26.1 102.4H29.3C30.1486 102.4 30.9626 102.737 31.5627 103.337C32.1628 103.937 32.5 104.751 32.5 105.6V108.8H29.3C28.4513 108.8 27.6373 108.463 27.0372 107.863C26.4371 107.263 26.1 106.449 26.1 105.6V102.4ZM77.3 25.6H74.1C73.2513 25.6 72.4373 25.2628 71.8372 24.6627C71.2371 24.0626 70.9 23.2487 70.9 22.4V19.2H74.1C74.9486 19.2 75.7626 19.5371 76.3627 20.1372C76.9628 20.7374 77.3 21.5513 77.3 22.4V25.6Z" fill="#1A1819"/>
</g>
</svg>
