<svg width="113" height="107" viewBox="0 0 113 107" fill="none" xmlns="http://www.w3.org/2000/svg">
<g opacity="0.5">
<path opacity="0.2" d="M120 56V72C120 74.1217 119.157 76.1566 117.657 77.6569C116.157 79.1571 114.122 80 112 80H108L98.95 105.345C98.6724 106.122 98.1611 106.795 97.4861 107.27C96.8111 107.746 96.0056 108.001 95.18 108H88.82C87.9945 108.001 87.1889 107.746 86.514 107.27C85.839 106.795 85.3276 106.122 85.05 105.345L83.145 100H48.855L46.95 105.345C46.6724 106.122 46.1611 106.795 45.4861 107.27C44.8111 107.746 44.0056 108.001 43.18 108H36.82C35.9945 108.001 35.1889 107.746 34.514 107.27C33.839 106.795 33.3276 106.122 33.05 105.345L26.5 87C19.7367 79.636 15.9889 69.9986 16 60C16 49.3913 20.2143 39.2172 27.7158 31.7157C35.2172 24.2143 45.3914 20 56 20H72C79.8055 19.9977 87.4411 22.2792 93.9658 26.5633C100.491 30.8474 105.619 36.9468 108.72 44.11C109.269 45.3814 109.753 46.6797 110.17 48H112C114.122 48 116.157 48.8429 117.657 50.3431C119.157 51.8434 120 53.8783 120 56Z" fill="#1A1819"/>
<path d="M96 58C96 59.1867 95.6481 60.3467 94.9888 61.3334C94.3295 62.3201 93.3925 63.0892 92.2961 63.5433C91.1997 63.9974 89.9933 64.1162 88.8295 63.8847C87.6656 63.6532 86.5965 63.0818 85.7574 62.2426C84.9183 61.4035 84.3468 60.3344 84.1153 59.1705C83.8838 58.0067 84.0026 56.8003 84.4567 55.7039C84.9109 54.6075 85.6799 53.6705 86.6666 53.0112C87.6533 52.3519 88.8133 52 90 52C91.5913 52 93.1174 52.6321 94.2426 53.7574C95.3679 54.8826 96 56.4087 96 58ZM76 32H56C54.9391 32 53.9217 32.4214 53.1716 33.1716C52.4214 33.9217 52 34.9391 52 36C52 37.0609 52.4214 38.0783 53.1716 38.8284C53.9217 39.5786 54.9391 40 56 40H76C77.0609 40 78.0783 39.5786 78.8284 38.8284C79.5786 38.0783 80 37.0609 80 36C80 34.9391 79.5786 33.9217 78.8284 33.1716C78.0783 32.4214 77.0609 32 76 32ZM124 56V72C124 75.1826 122.736 78.2348 120.485 80.4853C118.235 82.7357 115.183 84 112 84H110.82L102.715 106.69C102.16 108.244 101.138 109.589 99.7892 110.539C98.4402 111.49 96.8303 112 95.18 112H88.82C87.1697 112 85.5598 111.49 84.2108 110.539C82.8619 109.589 81.8399 108.244 81.285 106.69L80.325 104H51.675L50.715 106.69C50.1601 108.244 49.1381 109.589 47.7892 110.539C46.4402 111.49 44.8303 112 43.18 112H36.82C35.1697 112 33.5598 111.49 32.2108 110.539C30.8619 109.589 29.8399 108.244 29.285 106.69L23 89.11C17.0212 82.3428 13.2774 73.8948 12.28 64.92C10.9891 65.598 9.90808 66.616 9.15375 67.8638C8.39941 69.1116 8.00045 70.5419 8 72C8 73.0609 7.57857 74.0783 6.82843 74.8284C6.07828 75.5786 5.06087 76 4 76C2.93913 76 1.92172 75.5786 1.17157 74.8284C0.421427 74.0783 0 73.0609 0 72C0.00611189 68.4328 1.20411 64.97 3.40367 62.1617C5.60323 59.3533 8.67818 57.3606 12.14 56.5C13.0336 45.4766 18.0401 35.1925 26.1654 27.6896C34.2907 20.1868 44.9405 16.014 56 16H108C109.061 16 110.078 16.4214 110.828 17.1716C111.579 17.9217 112 18.9391 112 20C112 21.0609 111.579 22.0783 110.828 22.8284C110.078 23.5786 109.061 24 108 24H97.305C103.943 28.6575 109.164 35.0602 112.39 42.5C112.605 43 112.815 43.5 113.015 44C116.019 44.2549 118.816 45.6309 120.851 47.8543C122.887 50.0777 124.011 52.9857 124 56ZM116 56C116 54.9391 115.579 53.9217 114.828 53.1716C114.078 52.4214 113.061 52 112 52H110.17C109.318 52.0009 108.488 51.7298 107.801 51.2262C107.114 50.7225 106.606 50.0127 106.35 49.2C104.058 41.8867 99.4893 35.4971 93.3099 30.9637C87.1305 26.4304 79.664 23.9904 72 24H56C49.0136 23.9996 42.178 26.0322 36.3268 29.8497C30.4757 33.6673 25.8617 39.1049 23.0476 45.4995C20.2336 51.8941 19.341 58.9694 20.4787 65.8625C21.6164 72.7557 24.7353 79.1688 29.455 84.32C29.8159 84.7125 30.0947 85.1732 30.275 85.675L36.82 104H43.18L45.09 98.655C45.3673 97.8783 45.8779 97.2063 46.5519 96.731C47.2259 96.2558 48.0303 96.0004 48.855 96H83.145C83.9697 96.0004 84.7741 96.2558 85.4481 96.731C86.1221 97.2063 86.6327 97.8783 86.91 98.655L88.82 104H95.18L104.235 78.655C104.512 77.8783 105.023 77.2063 105.697 76.731C106.371 76.2558 107.175 76.0004 108 76H112C113.061 76 114.078 75.5786 114.828 74.8284C115.579 74.0783 116 73.0609 116 72V56Z" fill="#1A1819"/>
</g>
</svg>
