<svg width="26" height="27" viewBox="0 0 26 27" fill="none" xmlns="http://www.w3.org/2000/svg">
<path d="M13 0.5C5.82062 0.5 0 6.32062 0 13.5C0 20.6794 5.82062 26.5 13 26.5C20.1794 26.5 26 20.6794 26 13.5C26 6.32062 20.1794 0.5 13 0.5ZM15.2069 18.7931C15.3036 18.8851 15.381 18.9954 15.4345 19.1178C15.4879 19.2401 15.5163 19.3718 15.518 19.5053C15.5197 19.6388 15.4947 19.7712 15.4444 19.8949C15.3941 20.0185 15.3196 20.1308 15.2252 20.2252C15.1308 20.3196 15.0185 20.3941 14.8949 20.4444C14.7712 20.4947 14.6388 20.5197 14.5053 20.518C14.3718 20.5163 14.2401 20.4879 14.1178 20.4345C13.9954 20.381 13.8851 20.3036 13.7931 20.2069L7.79313 14.2069C7.60573 14.0194 7.50046 13.7651 7.50046 13.5C7.50046 13.2349 7.60573 12.9806 7.79313 12.7931L13.7931 6.79313C13.9822 6.61351 14.2339 6.51485 14.4947 6.51819C14.7555 6.52152 15.0046 6.6266 15.189 6.811C15.3734 6.9954 15.4785 7.24454 15.4818 7.5053C15.4852 7.76606 15.3865 8.01781 15.2069 8.20687L9.91438 13.5L15.2069 18.7931Z" fill="#F8FFE5"/>
</svg>
