<svg width="21" height="22" viewBox="0 0 21 22" fill="none" xmlns="http://www.w3.org/2000/svg">
<path d="M1.03001 13.77C0.817005 15.164 1.76801 16.131 2.93201 16.613C7.39501 18.463 13.605 18.463 18.068 16.613C19.232 16.131 20.183 15.163 19.97 13.77C19.84 12.913 19.193 12.2 18.714 11.503C18.087 10.579 18.025 9.572 18.024 8.5C18.025 4.358 14.657 1 10.5 1C6.343 1 2.97501 4.358 2.97501 8.5C2.97501 9.572 2.91301 10.58 2.28501 11.503C1.80701 12.2 1.16101 12.913 1.03001 13.77Z" stroke="black" stroke-width="1.5" stroke-linecap="round" stroke-linejoin="round"/>
<path d="M6.5 18C6.958 19.725 8.576 21 10.5 21C12.425 21 14.041 19.725 14.5 18" stroke="black" stroke-width="1.5" stroke-linecap="round" stroke-linejoin="round"/>
</svg>
