<svg width="48" height="16" viewBox="0 0 48 16" fill="none" xmlns="http://www.w3.org/2000/svg">
<path d="M18.224 0.524536L11.94 15.5165H7.84L4.748 3.55054C4.56 2.81454 4.398 2.54454 3.826 2.23454C2.894 1.72854 1.354 1.25454 0 0.958536L0.092 0.524536H6.692C7.1233 0.524104 7.54054 0.677865 7.86842 0.958065C8.19629 1.23827 8.41321 1.62644 8.48 2.05254L10.114 10.7285L14.15 0.524536H18.224ZM34.29 10.6225C34.306 6.66454 28.818 6.44654 28.856 4.67854C28.868 4.14054 29.38 3.56854 30.5 3.42254C31.8126 3.29788 33.1345 3.53005 34.326 4.09454L35.006 0.914536C33.846 0.478135 32.6174 0.252588 31.378 0.248535C27.544 0.248535 24.846 2.28854 24.822 5.20654C24.798 7.36454 26.748 8.56654 28.218 9.28654C29.73 10.0205 30.238 10.4925 30.23 11.1485C30.22 12.1565 29.026 12.5985 27.91 12.6165C25.96 12.6465 24.83 12.0905 23.926 11.6705L23.224 14.9545C24.13 15.3705 25.802 15.7345 27.536 15.7505C31.61 15.7505 34.276 13.7385 34.29 10.6225ZM44.412 15.5165H48L44.87 0.524536H41.558C41.2039 0.520434 40.8569 0.62322 40.5622 0.819464C40.2674 1.01571 40.0388 1.29629 39.906 1.62454L34.088 15.5165H38.16L38.97 13.2765H43.946L44.412 15.5165ZM40.086 10.2045L42.126 4.57454L43.302 10.2045H40.086ZM23.766 0.524536L20.56 15.5165H16.68L19.89 0.524536H23.766Z" fill="#F8F9FA"/>
</svg>
